<?xml version="1.0"?>
<svg xmlns="http://www.w3.org/2000/svg" viewBox="-13 0 512 512.00092" width="512px" height="512px"><path d="m253.703125 142.359375c-2.933594 0-3.609375-.21875-14.082031-6.742187-4.828125-3.007813-12.269532-7.796876-20.300782-13.523438-21.003906-14.976562-34.378906-28.015625-39.746093-38.75-6.625-13.25-8.59375-28.308594-5.546875-42.402344 3.042968-14.074218 10.65625-25.871094 21.4375-33.21875 10.613281-7.234375 23.074218-9.441406 36.039062-6.386718 10 2.355468 15.835938 7.507812 22.199219 14.140624 6.367187-6.632812 12.199219-11.78125 22.203125-14.140624 12.964844-3.054688 25.425781-.847657 36.039062 6.386718 10.78125 7.347656 18.394532 19.144532 21.4375 33.21875 3.046876 14.09375 1.074219 29.152344-5.546874 42.402344-5.371094 10.734375-18.742188 23.769531-39.746094 38.75-8.03125 5.726562-15.472656 10.515625-20.300782 13.523438-10.476562 6.523437-11.148437 6.742187-14.085937 6.742187zm-33.355469-122.351563c-4.917968 0-9.476562 1.417969-13.621094 4.242188-6.527343 4.445312-11.199218 11.875-13.152343 20.917969-2.085938 9.660156-.707031 20.039062 3.890625 29.230469 7.457031 14.921874 42.148437 38.027343 56.238281 46.464843 14.089844-8.4375 48.78125-31.542969 56.242187-46.464843 4.59375-9.191407 5.976563-19.570313 3.886719-29.230469-1.953125-9.042969-6.625-16.46875-13.152343-20.917969-5.933594-4.042969-12.726563-5.207031-20.1875-3.445312-5.332032 1.253906-8.03125 3.898437-15.050782 11.359374-1.40625 1.496094-2.910156 3.09375-4.5625 4.796876-1.882812 1.941406-4.472656 3.035156-7.175781 3.035156s-5.292969-1.09375-7.175781-3.035156c-1.652344-1.703126-3.15625-3.300782-4.5625-4.796876-7.023438-7.460937-9.722656-10.105468-15.050782-11.359374-2.25-.53125-4.441406-.796876-6.566406-.796876zm0 0" fill="#FFFFFF"/><path d="m476.496094 512c-.648438 0-1.308594-.070312-1.960938-.199219-.628906-.121093-1.257812-.320312-1.867187-.570312-.601563-.25-1.179688-.558594-1.722657-.917969-.546874-.363281-1.058593-.78125-1.519531-1.242188-.457031-.460937-.878906-.96875-1.25-1.519531-.359375-.539062-.667969-1.121093-.917969-1.730469-.25-.597656-.441406-1.230468-.570312-1.871093-.121094-.636719-.191406-1.296875-.191406-1.949219 0-.648438.070312-1.308594.191406-1.949219.128906-.640625.320312-1.269531.570312-1.871093.25-.609376.558594-1.1875.917969-1.726563.371094-.550781.792969-1.0625 1.25-1.523437.460938-.457032.972657-.878907 1.519531-1.238282.542969-.359375 1.121094-.667968 1.722657-.917968.609375-.25 1.238281-.453126 1.867187-.570313 1.292969-.261719 2.621094-.261719 3.910156 0 .640626.117187 1.269532.320313 1.871094.570313.609375.25 1.191406.558593 1.730469.917968.550781.359375 1.058594.78125 1.519531 1.238282.460938.460937.878906.972656 1.238282 1.523437.363281.539063.671874 1.117187.921874 1.726563.25.601562.441407 1.230468.570313 1.871093s.199219 1.300781.199219 1.949219c0 .652344-.070313 1.3125-.199219 1.949219-.128906.640625-.320313 1.273437-.570313 1.871093-.25.609376-.558593 1.191407-.921874 1.730469-.359376.550781-.777344 1.058594-1.238282 1.519531-.460937.460938-.96875.878907-1.519531 1.242188-.539063.359375-1.121094.667969-1.730469.917969-.601562.25-1.230468.449219-1.871094.570312-.636718.128907-1.296874.199219-1.949218.199219zm0 0" fill="#FFFFFF"/><path d="m437.777344 512h-405.566406c-5.523438 0-10-4.476562-10-10s4.476562-10 10-10h405.566406c5.519531 0 10 4.476562 10 10s-4.480469 10-10 10zm0 0" fill="#FFFFFF"/><path d="m125.816406 104.949219c-38.898437 0-69.386718 11.316406-90.613281 33.644531-25.996094 27.335938-37.691406 70.71875-34.761719 128.941406 2.3125 46 27.773438 69.484375 48.726563 81.089844.808593.449219 1.617187.878906 2.421875 1.300781-20.847656 10.878907-34.8125 32.691407-34.8125 57.503907v47.097656c0 5.523437 4.476562 10 10 10h198.085937c5.523438 0 10-4.476563 10-10v-47.097656c0-24.8125-13.964843-46.625-34.816406-57.503907.808594-.421875 1.613281-.851562 2.421875-1.300781 20.953125-11.601562 46.414062-35.089844 48.730469-81.089844 2.929687-58.222656-8.769531-101.601562-34.765625-128.941406-21.230469-22.328125-51.71875-33.644531-90.617188-33.644531zm-16.257812 257.648437c5.523437 0 10-4.476562 10-10v-16.539062c2.078125.136718 4.164062.203125 6.261718.203125 2.097657 0 4.183594-.066407 6.261719-.203125v16.539062c0 5.523438 4.476563 10 10 10h10.457031l-26.71875 26.714844-26.71875-26.714844zm43.070312-20h-.546875v-9.964844c3.800781-1.070312 7.527344-2.371093 11.164063-3.890624-4.308594 6.289062-8.175782 11.03125-10.617188 13.855468zm29.410156-50.707031c-14.542968 15.515625-34.917968 24.375-56.21875 24.375-21.300781 0-41.679687-8.863281-56.222656-24.375-7.945312-23.089844-8.6875-45.378906-2.253906-66.660156 2.023438.667969 4.226562.675781 6.300781-.03125.144531-.046875 14.6875-4.597657 52.171875-4.597657s52.027344 4.550782 52.085938 4.566407c2.089844.714843 4.328125.710937 6.378906.03125 6.445312 21.289062 5.707031 43.589843-2.242188 66.691406zm-82.480468 40.742187v9.964844h-.5625c-2.445313-2.824218-6.320313-7.5625-10.640625-13.871094 3.648437 1.527344 7.390625 2.832032 11.203125 3.90625zm115.304687 74.796876v37.097656h-178.085937v-37.097656c0-21.242188 14.792968-39.308594 35.097656-43.777344l46.875 46.875c1.953125 1.953125 4.511719 2.925781 7.070312 2.925781 2.558594 0 5.117188-.972656 7.070313-2.925781l46.875-46.875c20.304687 4.46875 35.097656 22.535156 35.097656 43.777344zm16.363281-140.902344c-2.140624 42.480468-28.105468 61.339844-48.875 69.652344 5.941407-9.160157 12.277344-20.679688 17.242188-33.992188.183594-.488281.363281-.984375.542969-1.480469.050781-.128906.097656-.257812.140625-.386719 11.488281-32.09375 16.425781-79.839843-22.59375-128.496093-1.964844-2.453125-4.867188-3.746094-7.808594-3.746094-1.953125 0-3.925781.574219-5.648438 1.753906-4.316406 2.960938-5.617187 8.75-2.988281 13.273438 1.957031 3.367187 5.980469 11.519531 8.257813 20.058593-9.324219-1.324218-23.457032-2.566406-43.679688-2.566406-20.207031 0-34.335937 1.242188-43.65625 2.5625 2.28125-8.515625 6.292969-16.675781 8.242188-20.054687 2.628906-4.523438 1.328125-10.3125-2.988282-13.273438-4.316406-2.960937-10.183593-2.09375-13.457031 1.992188-39.015625 48.65625-34.082031 96.402343-22.59375 128.492187.046875.132813.09375.265625.144531.394532.175782.496093.359376.988281.539063 1.476562 4.9375 13.242188 11.234375 24.710938 17.148437 33.847656-3.347656-1.347656-6.832031-2.964844-10.335937-4.90625-24.023437-13.304687-36.957031-35.039062-38.441406-64.597656-2.644531-52.539062 7.207031-90.949219 29.277343-114.15625 17.308594-18.199219 42.917969-27.425781 76.125-27.425781 33.203126 0 58.816407 9.226562 76.125 27.425781 22.070313 23.210938 31.921876 61.621094 29.28125 114.152344zm0 0" fill="#FFFFFF"/><path d="m422.578125 328.398438h-17.953125v-12.242188c37.117188-13.632812 63.667969-49.332031 63.667969-91.117188 0-2.578124-.308594-33.316406-.308594-33.316406 0-22.320312-7.707031-41.804687-22.292969-56.339844-17.421875-17.363281-43.777344-26.90625-74.261718-26.90625-.167969 0-.339844 0-.503907 0-57.648437.199219-96.378906 34.03125-96.378906 84.1875 0 0-.308594 29.800782-.308594 32.375 0 41.785157 26.550781 77.484376 63.667969 91.117188v12.242188h-17.953125c-35.746094 0-64.828125 29.085937-64.828125 64.832031v61.296875c0 5.523437 4.476562 10 9.996094 10h212.285156c5.523438 0 10-4.476563 10-10v-61.296875c0-35.746094-29.082031-64.832031-64.828125-64.832031zm-128.03125-135.730469c0-47.1875 41.179687-64.070313 76.445313-64.191407h.441406c25.148437 0 46.496094 7.476563 60.140625 21.074219 10.890625 10.851563 16.414062 25.042969 16.414062 42.171875v15.367188c-51.121093-4.375-106.578125-39.851563-107.164062-40.230469-1.632813-1.058594-3.519531-1.597656-5.421875-1.597656-.980469 0-1.964844.140625-2.925782.433593-2.816406.855469-5.117187 2.921876-6.28125 5.625-.132812.3125-11.863281 27.066407-31.648437 34.378907zm-.292969 33.878906c22.632813-4.652344 37.699219-24.734375 45.074219-37.234375 19.210937 11.085938 64.722656 34.679688 108.933594 37.859375-1.132813 41.492187-35.234375 74.894531-76.996094 74.894531-41.96875 0-76.207031-33.742187-77.011719-75.519531zm77.011719 95.519531c4.53125 0 8.992187-.3125 13.359375-.917968v7.25h-26.71875v-7.25c4.367188.605468 8.828125.917968 13.359375.917968zm28.074219 26.332032-28.074219 45.488281-28.074219-45.488281zm68.066406 96.128906h-192.285156v-51.296875c0-24.632813 19.96875-44.6875 44.570312-44.828125l43.066406 69.773437c1.820313 2.953125 5.039063 4.75 8.507813 4.75s6.6875-1.796875 8.511719-4.75l43.0625-69.773437c24.601562.140625 44.570312 20.195312 44.570312 44.828125v51.296875zm0 0" fill="#FFFFFF"/></svg>
